<svg width="1440" height="800" viewBox="0 0 1440 800" fill="none" xmlns="http://www.w3.org/2000/svg">
<mask id="mask0_133_513" style="mask-type:alpha" maskUnits="userSpaceOnUse" x="0" y="0" width="1440" height="800">
<rect width="1440" height="800" fill="#F8F8F8"/>
</mask>
<g mask="url(#mask0_133_513)">
<path d="M-53.0399 824.41C-148.986 669.687 101.77 483.499 347.598 596.876C654.883 738.597 449.811 1032.67 129.56 907.851C-46.3454 839.292 -41.2939 840.469 -49.9785 832.402C-41.0765 849.502 -19.3688 883.869 -53.0399 829.747C-51.7767 830.765 -50.814 831.626 -49.9785 832.402C-52.3884 827.773 -53.8598 824.41 -53.0399 824.41Z" fill="#F3F3F3"/>
<path d="M1428.27 564.413C1028.61 286.476 103.646 101.185 -371.054 61.2758C-669.487 15.1905 -972.807 82.3285 -247.143 143.944C283.404 188.993 1101.91 521.654 1361.95 950.675C1448.63 961.127 1648.01 717.226 1428.27 564.413Z" fill="#F3F3F3"/>
<path d="M1448.38 147.812C1218.04 303.54 776.563 156.197 641 -41.4584L1190.45 -75C1353.2 -52.639 1632.65 23.2289 1448.38 147.812Z" fill="#F3F3F3"/>
</g>
</svg>
