<svg width="91" height="75" viewBox="0 0 91 75" fill="none" xmlns="http://www.w3.org/2000/svg">
<path d="M22.9954 7.75098H29.1653C29.1653 7.75098 26.0079 20.3774 24.7175 29.9175L22.9954 7.75098Z" fill="#014C23"/>
<path d="M19.7188 22.4814C19.7188 22.4814 18.762 8.61127 16.8512 0.577484H23.4497C23.4497 0.577484 25.4586 14.5427 25.6502 33.8642C25.8419 53.1857 20.2924 32.6206 20.2924 32.6206L19.7188 22.4814Z" fill="#00AD4B"/>
<path d="M14.1708 37.6962C14.1708 37.6962 14.7458 17.6985 8.71935 5.65464L14.936 3.0723C14.936 3.0723 21.536 17.0375 22.6845 41.0453C23.8331 65.053 19.4804 61.6617 19.4804 61.6617L14.1708 37.6962Z" fill="#014C23"/>
<path d="M20.2954 62.4632C20.2954 62.4632 16.7577 35.0112 34.3571 5.26221L42.2958 7.17595C42.2958 7.17595 26.9014 28.6074 24.5998 58.8273L20.2954 62.4632Z" fill="#014C23"/>
<path d="M0.976852 13.7775L6.81014 10.2383C6.81014 10.2383 17.7145 39.124 20.2969 62.4586L15.2243 59.1156C15.2243 59.1156 9.77131 30.0382 0.976852 13.7775Z" fill="#00AD4B"/>
<path fill-rule="evenodd" clip-rule="evenodd" d="M15.1684 58.9474H24.5968V69.1351C24.6276 69.3534 24.6435 69.5766 24.6435 69.8035C24.6435 72.42 22.5225 74.5411 19.906 74.5411C17.2895 74.5411 15.1684 72.42 15.1684 69.8035C15.1684 69.8035 15.1684 69.8035 15.1684 69.8034V58.9474Z" fill="#EBF2E7"/>
<path d="M47.7941 43.4133C47.1798 43.0162 46.6992 42.4435 46.4146 41.7697C45.7178 40.1546 45.1678 38.4801 44.771 36.7665C44.3947 35.1214 44.0597 33.3742 43.7659 31.5249C43.0052 26.7465 42.5891 22.4326 42.5177 18.583C42.5045 18.3553 42.5131 18.1268 42.5434 17.9008C42.5776 17.6646 42.6699 17.4405 42.812 17.2488C42.9673 16.9506 43.1929 16.6948 43.4693 16.5033C43.7457 16.3119 44.0645 16.1906 44.3982 16.15C45.4044 16.0575 46.0801 16.1868 46.4252 16.5379C46.7703 16.8891 47.046 17.5567 47.2522 18.5407C47.3357 19.0597 47.3861 19.5834 47.4032 20.1088L47.462 20.7472C47.5627 22.4919 47.6281 23.8588 47.6582 24.8479C47.6884 25.837 47.7468 26.8039 47.8333 27.7487C47.9158 28.6965 48.1171 30.1715 48.437 32.1738C48.6242 33.342 48.843 34.5036 49.0935 35.6587L49.1207 35.8247C49.1318 35.8911 49.1921 35.9153 49.3018 35.8972C49.3883 35.8837 49.4711 35.8527 49.5451 35.8059C49.619 35.7592 49.6826 35.6978 49.732 35.6255C49.8044 31.8212 50.0791 28.7971 50.556 26.5534C50.9293 24.7785 51.6658 23.8035 52.7656 23.6284C53.492 23.5117 54.1732 23.8206 54.8091 24.5551C55.2541 25.2103 55.627 25.9117 55.9214 26.6469L58.1597 31.9806C58.2713 32.2835 58.4422 32.561 58.6623 32.7972C58.8895 33.0025 59.1697 33.14 59.4712 33.1941C59.7731 33.1443 59.9964 32.8455 60.1232 32.2885C60.2486 31.7811 60.2738 31.2541 60.1972 30.737L60.004 28.6678C59.8732 26.4311 59.6548 24.1406 59.349 21.7962C59.2207 20.8607 58.9837 19.9434 58.6426 19.0629C58.3889 18.3891 58.1871 17.6968 58.0389 16.9922C57.8427 15.7596 58.4676 15.005 59.9134 14.7283C60.4869 14.6377 60.9533 14.7389 61.317 15.0302C61.6707 15.3114 61.9405 15.684 62.0973 16.1078C62.5355 17.1697 62.849 18.2789 63.0316 19.413L63.2021 20.9102L63.9326 33.1548C63.9769 34.2777 63.9643 35.4348 63.8949 36.6262C63.854 37.6976 63.6467 38.7561 63.2806 39.7639C62.9365 40.6534 62.3464 41.165 61.5102 41.2988C60.4537 41.4668 59.3973 40.8561 58.3408 39.4666C57.5439 38.4423 56.7893 37.3858 56.0769 36.2971C55.3518 35.1835 54.7635 33.9866 54.3246 32.7323L53.6817 31.0389L53.5609 31.1264L53.4674 33.3088C53.4211 34.8533 53.3004 36.3967 53.1052 37.9392C52.9539 39.3264 52.5867 40.6815 52.017 41.9553C51.4877 43.0903 50.6722 43.7443 49.5705 43.9174C49.0161 43.9999 48.4239 43.8319 47.7941 43.4133Z" fill="#014C23"/>
<path d="M66.0848 41.8119C65.8655 41.7591 65.6625 41.6534 65.4936 41.5039C65.3247 41.3545 65.195 41.1659 65.1158 40.9547C64.9238 40.5135 64.8051 40.044 64.7642 39.5646C64.6887 38.3844 64.6515 37.1528 64.6525 35.87C64.6535 34.5871 64.6344 33.2896 64.5952 31.9776C64.5952 30.0488 65.0545 28.8031 65.9731 28.2407C66.4478 27.9454 66.9879 27.7717 67.5458 27.7351C67.7103 27.7341 67.8733 27.7659 68.0255 27.8286C68.1776 27.8913 68.3157 27.9837 68.4317 28.1003C68.686 28.3477 68.8658 28.6614 68.9509 29.0059C69.0088 29.3042 69.0371 29.6075 69.0354 29.9114L69.0641 30.5015C68.8015 33.2745 68.6505 35.4096 68.6113 36.9068C68.5912 37.6745 68.5409 38.4332 68.4604 39.1828C68.4006 39.8522 68.2049 40.5023 67.8853 41.0935C67.5835 41.6187 67.0965 41.8808 66.4244 41.8798L66.0848 41.8119ZM65.9444 25.4591C65.807 25.3237 65.6988 25.1615 65.6264 24.9827C65.5539 24.8039 65.5189 24.6121 65.5233 24.4192C65.5227 24.2235 65.5609 24.0296 65.6356 23.8487C65.7102 23.6678 65.8199 23.5034 65.9584 23.3651C66.0969 23.2268 66.2613 23.1172 66.4423 23.0427C66.6233 22.9682 66.8173 22.9303 67.013 22.9311C67.2056 22.9285 67.3967 22.9644 67.5752 23.0369C67.7536 23.1094 67.9157 23.2169 68.0519 23.3531C68.1881 23.4893 68.2956 23.6514 68.3681 23.8299C68.4406 24.0083 68.4766 24.1995 68.4739 24.3921C68.4777 24.5875 68.4423 24.7817 68.3697 24.9631C68.2971 25.1446 68.1889 25.3097 68.0513 25.4485C67.9181 25.5894 67.757 25.7008 67.5781 25.7757C67.3993 25.8505 67.2068 25.8872 67.013 25.8832C66.8153 25.8893 66.6186 25.8547 66.4348 25.7818C66.251 25.7089 66.0841 25.599 65.9444 25.4591V25.4591Z" fill="#014C23"/>
<path d="M71.2132 41.3622C70.8096 40.8997 70.4949 40.3665 70.2851 39.7895C70.0566 39.1921 69.901 38.5693 69.8217 37.9347C69.5977 36.2956 69.4852 34.6432 69.4851 32.9888C69.4851 30.254 69.6723 26.4703 70.0466 21.6377C70.0461 21.2842 70.1032 20.933 70.2156 20.5978C70.3512 20.2318 70.6093 19.9241 70.9461 19.727C71.2678 19.5008 71.6488 19.3738 72.0418 19.3617C72.5279 19.3864 73.0091 19.4716 73.4741 19.6153C73.8685 19.7652 74.1402 20.1209 74.2891 20.6823C74.2988 22.3275 74.1863 23.971 73.9526 25.5995C73.6004 28.9585 73.4316 32.3342 73.447 35.7115V35.8806C73.447 35.9364 73.4651 35.9651 73.5028 35.9651L73.7548 35.9092C75.1041 35.2723 76.1063 34.3778 76.7613 33.2258C77.4292 32.0332 77.8047 30.6993 77.857 29.3334L77.9415 28.7161C77.9579 28.2912 78.0083 27.8682 78.0925 27.4514C78.1619 27.0747 78.3168 26.7189 78.5452 26.4115C78.7595 26.1308 79.1021 25.9904 79.57 25.9904L79.8507 26.0191C80.5068 26.0573 80.9751 26.1926 81.2559 26.4251C81.5366 26.6575 81.7237 27.2335 81.8173 28.1532C81.8167 28.5139 81.7695 28.8731 81.6769 29.2217C81.2913 30.9261 80.677 32.5705 79.8507 34.1102C79.4385 34.8445 78.9394 35.5266 78.3641 36.1417C77.8072 36.7107 77.2149 37.2441 76.5907 37.7385C76.7926 37.9296 77.0315 38.0775 77.2926 38.1731C77.5433 38.26 77.8022 38.3212 78.0653 38.3557C78.3848 38.405 78.6998 38.4802 79.0071 38.5806C79.6425 38.9368 79.9624 39.4152 79.9624 40.0144C79.9347 40.4044 79.7982 40.7787 79.5685 41.0951C79.3612 41.3486 78.9774 41.4754 78.4169 41.4754C76.6199 41.3406 75.1056 40.6941 73.8741 39.536C73.8741 39.4983 73.8363 39.4801 73.7609 39.4801C73.7569 39.6559 73.7808 39.8311 73.8318 39.9993C73.8786 40.1397 73.9299 40.3329 73.9827 40.5759C73.9849 40.7654 73.9473 40.9533 73.8724 41.1275C73.7976 41.3016 73.6871 41.4582 73.5481 41.5871C73.4182 41.7201 73.263 41.8259 73.0917 41.8982C72.9204 41.9705 72.7364 42.0079 72.5505 42.0082C72.2937 42.0059 72.0406 41.9468 71.8094 41.8351C71.5782 41.7234 71.3746 41.5619 71.2132 41.3622V41.3622Z" fill="#014C23"/>
<path d="M83.7295 41.8119C83.5103 41.7591 83.3073 41.6534 83.1383 41.5039C82.9694 41.3545 82.8397 41.1659 82.7606 40.9547C82.5686 40.5135 82.4498 40.044 82.4089 39.5646C82.3345 38.3844 82.2973 37.1528 82.2973 35.87C82.2973 34.5871 82.2786 33.2896 82.2414 31.9776C82.2414 30.0488 82.7002 28.8031 83.6179 28.2407C84.0934 27.9449 84.6347 27.7712 85.1935 27.7351C85.358 27.7341 85.5211 27.7659 85.6732 27.8286C85.8253 27.8913 85.9634 27.9837 86.0795 28.1003C86.3337 28.3477 86.5136 28.6614 86.5986 29.0059C86.6566 29.3042 86.6849 29.6075 86.6832 29.9114L86.7118 30.5015C86.4492 33.2745 86.2983 35.4096 86.2591 36.9068C86.2399 37.6745 86.1896 38.4332 86.1081 39.1828C86.0491 39.8523 85.8534 40.5026 85.5331 41.0935C85.2312 41.6187 84.7443 41.8808 84.0721 41.8798L83.7295 41.8119ZM83.5892 25.4591C83.4518 25.3237 83.3435 25.1615 83.2711 24.9827C83.1987 24.8039 83.1636 24.6121 83.1681 24.4192C83.1675 24.2235 83.2056 24.0296 83.2803 23.8487C83.355 23.6678 83.4647 23.5034 83.6032 23.3651C83.7416 23.2268 83.9061 23.1172 84.0871 23.0427C84.2681 22.9682 84.462 22.9303 84.6577 22.9311C84.8503 22.9285 85.0415 22.9644 85.2199 23.0369C85.3984 23.1094 85.5605 23.2169 85.6967 23.3531C85.8329 23.4893 85.9404 23.6514 86.0129 23.8299C86.0853 24.0083 86.1213 24.1995 86.1187 24.3921C86.1228 24.5875 86.0876 24.7818 86.015 24.9633C85.9424 25.1449 85.8339 25.3099 85.6961 25.4485C85.5629 25.5894 85.4017 25.7008 85.2229 25.7757C85.0441 25.8505 84.8516 25.8872 84.6577 25.8832C84.4601 25.8893 84.2633 25.8547 84.0795 25.7818C83.8958 25.7089 83.7289 25.599 83.5892 25.4591V25.4591Z" fill="#014C23"/>
<path d="M49.5629 68.7311L48.0733 68.6753C47.4002 68.6375 46.8885 68.4262 46.5429 68.0429C46.1777 67.6211 45.9391 67.1047 45.8547 66.5532C45.7394 65.9184 45.6828 65.2742 45.6856 64.6289V59.1503C45.6856 56.7516 45.826 54.1572 46.1067 51.3671L46.1354 49.962C46.1397 49.0781 46.2053 48.1956 46.3316 47.3208C46.4453 46.6275 46.7406 46.1174 47.2175 45.7904C47.6945 45.4634 48.4949 45.2993 49.6188 45.2983C50.0866 45.2983 50.3885 45.4201 50.5243 45.6636C50.6556 45.9066 50.7296 46.2914 50.7492 46.8151C50.7481 47.1063 50.7294 47.3971 50.6934 47.686L50.636 48.0512C50.4489 49.644 50.2335 51.2267 49.9901 52.7994C49.7093 54.6739 49.4578 56.5353 49.2354 58.3836C49.0103 60.2391 48.8974 62.1064 48.8974 63.9754L48.926 64.958C48.926 65.446 49.16 65.6894 49.6278 65.6884C50.3583 65.6884 51.0797 65.7076 51.7921 65.7458C52.5045 65.784 53.2164 65.8026 53.9277 65.8016C54.3763 65.7805 54.8151 65.9372 55.1487 66.2378C55.2961 66.3715 55.4139 66.5346 55.4945 66.7165C55.5752 66.8985 55.6168 67.0953 55.6168 67.2943C55.6168 67.4933 55.5752 67.6901 55.4945 67.8721C55.4139 68.054 55.2961 68.2171 55.1487 68.3508C54.8145 68.6503 54.376 68.8064 53.9277 68.7854L52.8033 68.8141C51.7297 68.8151 50.6496 68.7875 49.5629 68.7311ZM56.3667 64.6848C55.3509 64.2888 54.459 63.6292 53.7828 62.7741C53.1433 61.9465 52.6838 60.9944 52.4335 59.9789C52.1741 58.9644 52.0418 57.9215 52.0396 56.8744C52.0483 55.9106 52.1807 54.9519 52.4335 54.0219C52.6949 53.022 53.1017 52.066 53.641 51.1845C54.1606 50.3198 54.8601 49.5771 55.692 49.0066C56.5572 48.433 57.5777 48.139 58.6155 48.1644C59.2788 48.1619 59.9365 48.2859 60.5534 48.5297C61.6773 49.0529 62.4359 49.8578 62.8293 50.9445C63.2354 52.1011 63.4535 53.3154 63.4753 54.541C63.4883 55.4034 63.3409 56.2606 63.0406 57.0691C62.7488 57.8197 62.1728 58.288 61.3125 58.4742C60.244 58.6241 59.1764 58.7363 58.1099 58.8107L56.507 58.9511C56.3757 58.9511 56.3108 58.9994 56.3108 59.093C56.4213 59.8852 56.7256 60.638 57.1968 61.2844C57.6536 61.9022 58.295 62.2111 59.1211 62.2111C59.9471 62.2111 60.4764 62.0657 60.7088 61.7749C60.8946 61.5319 61.1118 61.3147 61.3548 61.129C61.6025 60.9748 61.8921 60.9015 62.1834 60.9192C62.3726 60.9173 62.56 60.9568 62.7323 61.035C62.9047 61.1132 63.0578 61.2282 63.181 61.372C63.4527 61.6718 63.5986 62.0647 63.5885 62.4692C63.5111 63.1135 63.2015 63.7075 62.7176 64.1399C62.2369 64.5487 61.669 64.8419 61.0575 64.9972C60.4533 65.1618 59.8303 65.2471 59.2041 65.2508C58.2307 65.2463 57.2673 65.0541 56.3667 64.6848V64.6848ZM57.2949 55.8058C58.0175 55.671 58.7513 55.6053 59.4863 55.6096C59.7481 55.6127 60.0088 55.5751 60.2591 55.4979C60.3798 55.4406 60.4417 55.264 60.4417 54.9636V54.3735C60.442 53.9886 60.4183 53.604 60.3707 53.222C60.3055 52.7783 60.1874 52.3441 60.0191 51.9285C59.8319 51.4425 59.4481 51.199 58.8675 51.198C58.7305 51.2018 58.5962 51.2367 58.4746 51.3C58.353 51.3632 58.2474 51.4533 58.1657 51.5633C57.0611 52.6082 56.3976 54.0357 56.3108 55.5538C56.3088 55.6546 56.3133 55.7554 56.3244 55.8556C56.3335 55.9115 56.3757 55.9386 56.4512 55.9386L57.2949 55.8058Z" fill="#00AD4B"/>
<path d="M71.1136 68.31C69.7473 68.3117 68.4062 67.9424 67.2333 67.2415C66.0159 66.5311 65.1727 65.5808 64.7038 64.3905C64.234 63.1883 63.9958 61.9081 64.002 60.6173C64.0357 58.4268 64.6671 56.2871 65.8282 54.4294C66.3999 53.5114 67.1559 52.722 68.0483 52.1111C68.9797 51.4881 70.0838 51.1744 71.2036 51.2148C72.3234 51.2552 73.402 51.6475 74.2861 52.336C74.9066 52.819 75.3463 53.4969 75.5343 54.2603C75.731 55.0319 75.8324 55.8246 75.8361 56.6208C75.8063 57.4884 75.712 58.3526 75.5539 59.2062C75.4463 59.8971 75.166 60.5497 74.7389 61.1033C74.3465 61.5802 73.7755 61.8187 73.0259 61.8187C72.4071 61.7825 71.9392 61.7583 71.6208 61.7493C71.3023 61.7402 71.0593 61.7251 70.8903 61.707L68.2777 61.6225C68.0891 61.6225 67.9955 61.698 67.9955 61.8474L68.0242 62.0436C68.042 62.8659 68.2955 63.6658 68.7547 64.3482C69.129 64.966 69.8594 65.2749 70.9461 65.2749C71.1827 65.2867 71.4197 65.2633 71.6494 65.2055C71.8236 65.1287 71.981 65.0184 72.1128 64.881C72.2638 64.7329 72.4338 64.6055 72.6184 64.5022C72.8345 64.406 73.0704 64.3626 73.3066 64.3754C73.4983 64.3722 73.6886 64.41 73.8645 64.4862C74.0405 64.5625 74.1981 64.6755 74.3269 64.8176C74.5923 65.0929 74.7387 65.4615 74.7344 65.8439C74.7261 66.0849 74.675 66.3226 74.5834 66.5457C74.4825 66.7558 74.3444 66.946 74.1759 67.1071C73.4324 67.8261 72.4556 68.2545 71.423 68.3146L71.1136 68.31ZM72.6229 58.5874C72.7266 58.0124 72.7832 57.4299 72.7919 56.8457L72.8191 56.3114C72.8404 55.8127 72.7394 55.3163 72.5248 54.8655C72.4341 54.6898 72.2942 54.5444 72.1221 54.4471C71.9499 54.3498 71.7532 54.3048 71.5559 54.3177C71.3598 54.3197 71.167 54.3678 70.9929 54.458C69.5843 55.3576 68.7416 56.6872 68.4649 58.447C68.4649 58.5783 68.5766 58.6447 68.8015 58.6447L70.0089 58.6719C70.7986 58.674 71.5873 58.7304 72.3694 58.8409C72.4901 58.8409 72.5746 58.7564 72.6305 58.5874H72.6229Z" fill="#00AD4B"/>
<path d="M80.8408 67.7063C80.3128 67.2883 79.8661 66.7767 79.5232 66.1971C79.1556 65.5985 78.8622 64.9573 78.6494 64.2879C78.0776 62.5634 77.6237 60.8021 77.291 59.016C76.7397 56.0639 76.1797 51.9386 75.6112 46.6401C75.5403 46.2587 75.5312 45.8683 75.5841 45.484C75.6572 45.0613 75.8742 44.6768 76.1983 44.3958C76.4997 44.0865 76.8855 43.8728 77.3076 43.7815C77.8376 43.7095 78.3746 43.704 78.9059 43.7649C79.3597 43.8485 79.7245 44.178 80.0002 44.7535C80.3421 46.528 80.5515 48.3254 80.6265 50.131C80.9235 53.8278 81.4213 57.5058 82.1176 61.1486L82.1524 61.3312C82.1629 61.3916 82.1901 61.4187 82.2293 61.4112L82.4919 61.2995C83.8201 60.3396 84.7221 59.172 85.198 57.7965C85.678 56.3746 85.8145 54.8592 85.5965 53.3744L85.5633 52.6892C85.4968 52.2269 85.4675 51.7601 85.4757 51.2931C85.4746 50.8749 85.5691 50.4619 85.7519 50.0857C85.927 49.7386 86.2676 49.5182 86.7737 49.4247L87.0756 49.3975C87.7909 49.3069 88.3237 49.3573 88.6739 49.5484C89.0255 49.7446 89.3425 50.3302 89.6292 51.3007C89.7012 51.6902 89.7225 52.0874 89.6926 52.4824C89.6195 54.4008 89.2875 56.3006 88.7056 58.1301C88.4058 59.0029 88.003 59.8369 87.5057 60.6143C87.0225 61.3441 86.4932 62.0423 85.921 62.7046C86.1777 62.8711 86.4659 62.9831 86.7677 63.0337C87.0559 63.0764 87.3476 63.09 87.6385 63.0744C87.9915 63.0638 88.3448 63.0815 88.695 63.1272C89.4537 63.3838 89.8939 63.8366 90.0156 64.4856C90.0654 64.9128 89.9937 65.3454 89.8088 65.7337C89.6368 66.0476 89.2474 66.2615 88.6407 66.3752C86.6746 66.5955 84.9063 66.2031 83.3356 65.1979C83.3281 65.1572 83.2843 65.1451 83.2028 65.1602C83.2341 65.3507 83.2952 65.5351 83.3839 65.7066C83.4624 65.8575 83.5575 66.0461 83.6661 66.2982C83.7068 66.5026 83.7042 66.7132 83.6584 66.9165C83.6126 67.1197 83.5248 67.3112 83.4005 67.4784C83.2872 67.6485 83.1409 67.7941 82.9704 67.9066C82.7998 68.0191 82.6084 68.0962 82.4074 68.1334C82.131 68.1817 81.8473 68.1684 81.5765 68.0946C81.3057 68.0208 81.0545 67.8882 80.8408 67.7063V67.7063Z" fill="#00AD4B"/>
<g clip-path="url(#clip0_128_4)">
<path d="M25.1921 36.8419C24.9716 36.5378 24.6502 36.3868 24.3198 36.2392C22.7774 35.5578 21.2404 34.8638 19.7025 34.1806C18.8564 33.8064 17.9861 34.4532 18.0926 35.3719C18.1418 35.7939 18.3775 36.0973 18.7595 36.2717C19.1851 36.4655 19.6135 36.6531 20.0747 36.8592C19.86 37.025 19.6257 37.0997 19.4125 37.2027C17.9132 37.9312 16.4587 38.7358 15.1713 39.8132C13.6067 41.122 12.3447 42.6669 11.5434 44.5633C10.6805 46.608 10.4611 48.7158 10.9542 50.8913C11.2804 52.353 11.9286 53.6594 12.8583 54.8261C12.8778 54.8498 12.8972 54.8734 12.9166 54.897C12.9784 54.977 13.0542 54.9996 13.1388 54.9514C13.2325 54.8998 13.2423 54.8182 13.2085 54.7171C13.062 54.2703 12.9201 53.8218 12.8293 53.3588C12.4906 51.6374 12.6356 49.9525 13.1848 48.2986C13.7154 46.7037 14.5865 45.3095 15.7314 44.0899C16.6645 43.0972 17.7361 42.2898 18.918 41.6214C19.7273 41.1641 20.5766 40.8107 21.4461 40.4962C21.4865 40.4806 21.5307 40.448 21.5833 40.4641C21.5987 40.5307 21.5553 40.5786 21.5288 40.6303C21.3379 41.0723 21.1346 41.5086 20.9501 41.9533C20.7627 42.4042 20.8567 42.9023 21.1879 43.226C21.5368 43.5687 22.0234 43.6664 22.4701 43.4734C22.7255 43.3594 22.9225 43.1745 23.0353 42.9183C23.7753 41.2375 24.5153 39.5567 25.257 37.8804C25.3533 37.6617 25.3396 37.4387 25.3393 37.2105C25.2878 37.0903 25.2408 36.9684 25.1921 36.8419Z" fill="white"/>
</g>
<defs>
<clipPath id="clip0_128_4">
<rect width="18.4447" height="17.3724" fill="white" transform="matrix(0.93305 -0.359746 -0.359746 -0.93305 12.5009 55.1974)"/>
</clipPath>
</defs>
</svg>
