<svg width="45" height="50" viewBox="0 0 45 50" fill="none" xmlns="http://www.w3.org/2000/svg">
<path d="M4.91728 26.532C4.34547 26.1651 3.89805 25.636 3.63315 25.0134C2.98454 23.5212 2.47248 21.9742 2.10316 20.3909C1.75286 18.871 1.44097 17.2568 1.16747 15.5481C0.459375 11.1334 0.0720746 7.1477 0.0055737 3.59101C-0.00669469 3.38064 0.00130058 3.16959 0.0294554 2.96073C0.0613326 2.7425 0.147263 2.53552 0.279541 2.35834C0.424147 2.08288 0.634152 1.8465 0.891419 1.66963C1.14869 1.49276 1.44548 1.38073 1.75614 1.34321C2.69278 1.25768 3.32172 1.37713 3.64299 1.70157C3.96425 2.026 4.22089 2.6428 4.4129 3.55196C4.49056 4.03146 4.53749 4.51536 4.55339 5.00076L4.60819 5.5906C4.70185 7.20255 4.76273 8.46542 4.79083 9.37923C4.81893 10.293 4.87326 11.1864 4.95381 12.0593C5.03061 12.935 5.21794 14.2978 5.51579 16.1477C5.69 17.227 5.89372 18.3002 6.12694 19.3674L6.15223 19.5208C6.16253 19.5822 6.21873 19.6045 6.32082 19.5878C6.40131 19.5753 6.47837 19.5466 6.54724 19.5035C6.61611 19.4603 6.67532 19.4036 6.72123 19.3368C6.78867 15.8219 7.04437 13.028 7.48833 10.9549C7.83582 9.31509 8.52144 8.41429 9.54518 8.25254C10.2214 8.14471 10.8555 8.4301 11.4475 9.10872C11.8617 9.71409 12.2088 10.3621 12.4829 11.0414L14.5665 15.9692C14.6704 16.249 14.8295 16.5055 15.0343 16.7236C15.2458 16.9134 15.5067 17.0404 15.7874 17.0904C16.0684 17.0443 16.2763 16.7682 16.3943 16.2537C16.5111 15.7849 16.5344 15.298 16.4632 14.8202L16.2833 12.9085C16.1616 10.842 15.9583 8.72571 15.6736 6.55972C15.5542 5.69542 15.3335 4.84792 15.0161 4.03443C14.7799 3.41187 14.592 2.77229 14.4541 2.12129C14.2714 0.982515 14.8531 0.285307 16.199 0.0296635C16.7329 -0.0540015 17.167 0.0394244 17.5056 0.308547C17.8348 0.568355 18.086 0.912683 18.232 1.30416C18.6399 2.28528 18.9317 3.31006 19.1016 4.35793L19.2604 5.74119L19.9404 17.0541C19.9816 18.0915 19.9699 19.1606 19.9053 20.2613C19.8672 21.2512 19.6743 22.2292 19.3335 23.1603C19.0131 23.982 18.4638 24.4547 17.6855 24.5784C16.702 24.7336 15.7185 24.1694 14.7351 22.8856C13.9933 21.9392 13.2908 20.9631 12.6276 19.9573C11.9527 18.9284 11.405 17.8225 10.9965 16.6637L10.398 15.0991L10.2856 15.18L10.1985 17.1963C10.1554 18.6233 10.043 20.0493 9.8613 21.4744C9.72046 22.7561 9.37868 24.008 8.84832 25.1849C8.35565 26.2336 7.59651 26.8378 6.5709 26.9977C6.05481 27.0739 5.50361 26.9187 4.91728 26.532Z" fill="#014C23"/>
<path d="M21.9438 25.0524C21.7397 25.0036 21.5507 24.9059 21.3935 24.7678C21.2362 24.6298 21.1155 24.4555 21.0418 24.2604C20.8631 23.8528 20.7525 23.419 20.7145 22.9761C20.6442 21.8857 20.6096 20.7479 20.6105 19.5626C20.6115 18.3773 20.5937 17.1786 20.5571 15.9664C20.5571 14.1843 20.9847 13.0335 21.8398 12.5138C22.2817 12.241 22.7845 12.0806 23.3038 12.0467C23.457 12.0458 23.6088 12.0752 23.7503 12.1331C23.8919 12.191 24.0205 12.2764 24.1285 12.3842C24.3652 12.6127 24.5326 12.9026 24.6118 13.2208C24.6658 13.4964 24.6921 13.7767 24.6905 14.0574L24.7172 14.6027C24.4727 17.1647 24.3322 19.1373 24.2957 20.5206C24.277 21.2299 24.2301 21.9308 24.1552 22.6233C24.0996 23.2418 23.9174 23.8425 23.6199 24.3887C23.3389 24.8739 22.8856 25.1161 22.2599 25.1152L21.9438 25.0524ZM21.8132 9.94392C21.6852 9.81879 21.5845 9.669 21.5171 9.50378C21.4497 9.33855 21.417 9.16138 21.4212 8.98317C21.4206 8.80234 21.4561 8.6232 21.5256 8.45605C21.5951 8.2889 21.6973 8.13705 21.8262 8.00925C21.9551 7.88145 22.1082 7.78023 22.2766 7.71141C22.4451 7.64259 22.6257 7.60754 22.8078 7.60828C22.9871 7.60584 23.1651 7.63909 23.3312 7.70606C23.4973 7.77303 23.6482 7.87236 23.775 7.99819C23.9018 8.12402 24.0018 8.27379 24.0693 8.43866C24.1368 8.60352 24.1703 8.78014 24.1678 8.95807C24.1714 9.13861 24.1384 9.31803 24.0708 9.48569C24.0033 9.65335 23.9025 9.80585 23.7745 9.93416C23.6505 10.0643 23.5004 10.1673 23.3339 10.2364C23.1675 10.3056 22.9883 10.3394 22.8078 10.3358C22.6239 10.3413 22.4407 10.3095 22.2696 10.2421C22.0985 10.1747 21.9432 10.0732 21.8132 9.94392Z" fill="#014C23"/>
<path d="M26.7179 24.6369C26.3421 24.2096 26.0492 23.717 25.8539 23.1839C25.6412 22.632 25.4964 22.0566 25.4226 21.4702C25.214 19.9558 25.1093 18.4292 25.1093 16.9007C25.1093 14.374 25.2835 10.8782 25.6319 6.4133C25.6314 6.08669 25.6846 5.76219 25.7893 5.45254C25.9154 5.11443 26.1557 4.83012 26.4692 4.64796C26.7687 4.43903 27.1233 4.32172 27.4892 4.31052C27.9417 4.33335 28.3896 4.41204 28.8225 4.54478C29.1897 4.68329 29.4426 5.01191 29.5812 5.53063C29.5902 7.05058 29.4855 8.56909 29.2679 10.0736C28.9401 13.177 28.783 16.2959 28.7972 19.4162V19.5724C28.7972 19.624 28.8141 19.6505 28.8492 19.6505L29.0839 19.5989C30.3399 19.0105 31.2728 18.184 31.8825 17.1196C32.5043 16.0178 32.8538 14.7854 32.9025 13.5234L32.9812 12.9531C32.9964 12.5605 33.0434 12.1697 33.1217 11.7846C33.1863 11.4366 33.3305 11.1079 33.5432 10.8238C33.7427 10.5645 34.0616 10.4348 34.4971 10.4348L34.7584 10.4613C35.3691 10.4966 35.8051 10.6216 36.0664 10.8364C36.3278 11.0511 36.502 11.5833 36.5891 12.433C36.5885 12.7663 36.5446 13.0981 36.4584 13.4202C36.0995 14.9949 35.5276 16.5142 34.7584 17.9368C34.3747 18.6152 33.91 19.2454 33.3746 19.8136C32.8561 20.3394 32.3048 20.8322 31.7238 21.2889C31.9117 21.4655 32.134 21.6022 32.3771 21.6905C32.6105 21.7708 32.8515 21.8273 33.0964 21.8592C33.3938 21.9047 33.687 21.9742 33.9731 22.067C34.5646 22.3961 34.8624 22.8381 34.8624 23.3917C34.8366 23.752 34.7095 24.0979 34.4957 24.3901C34.3028 24.6244 33.9454 24.7415 33.4237 24.7415C31.7509 24.6169 30.3413 24.0197 29.1948 22.9497C29.1948 22.9148 29.1597 22.8981 29.0895 22.8981C29.0858 23.0604 29.108 23.2224 29.1555 23.3778C29.1991 23.5075 29.2468 23.6859 29.296 23.9104C29.298 24.0856 29.263 24.2592 29.1933 24.4201C29.1236 24.581 29.0208 24.7256 28.8914 24.8447C28.7704 24.9676 28.626 25.0653 28.4665 25.1321C28.3071 25.1989 28.1358 25.2335 27.9627 25.2337C27.7237 25.2317 27.4881 25.1771 27.2729 25.0739C27.0577 24.9707 26.8681 24.8215 26.7179 24.6369Z" fill="#014C23"/>
<path d="M38.3688 25.0524C38.1647 25.0036 37.9757 24.9059 37.8185 24.7678C37.6612 24.6298 37.5405 24.4555 37.4668 24.2604C37.2881 23.8528 37.1775 23.419 37.1395 22.9761C37.0702 21.8857 37.0355 20.7479 37.0355 19.5626C37.0355 18.3773 37.0182 17.1786 36.9835 15.9664C36.9835 14.1843 37.4106 13.0335 38.2648 12.5138C38.7075 12.2406 39.2114 12.0801 39.7316 12.0467C39.8848 12.0458 40.0366 12.0752 40.1781 12.1331C40.3197 12.191 40.4483 12.2764 40.5563 12.3842C40.793 12.6127 40.9604 12.9026 41.0396 13.2208C41.0936 13.4964 41.1199 13.7767 41.1183 14.0574L41.145 14.6027C40.9005 17.1647 40.76 19.1373 40.7235 20.5206C40.7057 21.2299 40.6589 21.9308 40.583 22.6233C40.528 23.2419 40.3459 23.8427 40.0477 24.3887C39.7667 24.8739 39.3134 25.1161 38.6877 25.1152L38.3688 25.0524ZM38.2381 9.94392C38.1102 9.81879 38.0095 9.669 37.942 9.50378C37.8746 9.33855 37.842 9.16138 37.8462 8.98317C37.8456 8.80234 37.8811 8.6232 37.9506 8.45605C38.0201 8.2889 38.1223 8.13705 38.2512 8.00925C38.3801 7.88145 38.5331 7.78023 38.7016 7.71141C38.8701 7.64259 39.0507 7.60754 39.2328 7.60828C39.4121 7.60584 39.5901 7.63909 39.7562 7.70606C39.9223 7.77303 40.0732 7.87236 40.2 7.99819C40.3268 8.12402 40.4268 8.27379 40.4943 8.43866C40.5618 8.60352 40.5953 8.78014 40.5928 8.95807C40.5967 9.13866 40.5639 9.31816 40.4963 9.48587C40.4287 9.65358 40.3277 9.80604 40.1994 9.93416C40.0755 10.0643 39.9254 10.1673 39.7589 10.2364C39.5925 10.3056 39.4133 10.3394 39.2328 10.3358C39.0489 10.3413 38.8657 10.3095 38.6946 10.2421C38.5235 10.1747 38.3682 10.0732 38.2381 9.94392Z" fill="#014C23"/>
<path d="M6.56388 49.9232L5.17719 49.8717C4.55059 49.8368 4.07431 49.6416 3.75257 49.2874C3.41259 48.8977 3.1905 48.4206 3.11192 47.9111C3.00457 47.3245 2.9519 46.7294 2.95456 46.1332V41.0715C2.95456 38.8553 3.08523 36.4583 3.34655 33.8805L3.37324 32.5823C3.37726 31.7657 3.43828 30.9503 3.55589 30.1421C3.66173 29.5015 3.93663 29.0302 4.38059 28.7281C4.82455 28.426 5.56964 28.2745 6.61586 28.2735C7.05139 28.2735 7.33238 28.386 7.45883 28.611C7.58106 28.8355 7.64991 29.1911 7.66817 29.6749C7.66712 29.9439 7.64975 30.2126 7.61618 30.4795L7.5628 30.8169C7.38859 32.2885 7.18815 33.7508 6.96148 35.2038C6.70016 36.9356 6.466 38.6554 6.25901 40.3631C6.0494 42.0774 5.94431 43.8026 5.9443 45.5294L5.97099 46.4372C5.97099 46.8881 6.18875 47.113 6.62429 47.1121C7.30428 47.1121 7.97585 47.1298 8.63899 47.1651C9.30212 47.2004 9.9648 47.2176 10.627 47.2167C11.0446 47.1971 11.453 47.3419 11.7636 47.6197C11.9008 47.7432 12.0105 47.8939 12.0855 48.062C12.1606 48.2301 12.1993 48.4119 12.1993 48.5958C12.1993 48.7796 12.1606 48.9615 12.0855 49.1296C12.0105 49.2977 11.9008 49.4483 11.7636 49.5718C11.4525 49.8486 11.0443 49.9928 10.627 49.9734L9.58031 49.9999C8.58092 50.0009 7.57544 49.9753 6.56388 49.9232ZM12.8974 46.1848C11.9518 45.8189 11.1216 45.2096 10.4921 44.4195C9.89683 43.6549 9.46902 42.7753 9.23609 41.837C8.99455 40.8997 8.87138 39.9362 8.8694 38.9687C8.87751 38.0783 9.00074 37.1925 9.23609 36.3333C9.47937 35.4095 9.85807 34.5262 10.3601 33.7118C10.8438 32.9129 11.4949 32.2267 12.2694 31.6996C13.0748 31.1697 14.0247 30.8981 14.9908 30.9215C15.6082 30.9192 16.2205 31.0337 16.7947 31.259C17.8409 31.7424 18.5472 32.4861 18.9134 33.49C19.2914 34.5587 19.4944 35.6805 19.5147 36.8129C19.5268 37.6096 19.3896 38.4016 19.1101 39.1486C18.8384 39.8421 18.3022 40.2748 17.5014 40.4468C16.5067 40.5853 15.5129 40.689 14.5201 40.7577L13.028 40.8874C12.9058 40.8874 12.8454 40.932 12.8454 41.0185C12.9482 41.7505 13.2315 42.446 13.6701 43.0432C14.0953 43.614 14.6924 43.8994 15.4614 43.8994C16.2304 43.8994 16.7231 43.765 16.9394 43.4964C17.1123 43.2719 17.3145 43.0712 17.5407 42.8996C17.7714 42.7571 18.0409 42.6894 18.3121 42.7057C18.4882 42.704 18.6627 42.7405 18.8231 42.8128C18.9835 42.885 19.1261 42.9913 19.2407 43.1241C19.4936 43.4011 19.6295 43.7641 19.6201 44.1378C19.5481 44.7331 19.2599 45.2819 18.8094 45.6814C18.3619 46.059 17.8333 46.33 17.264 46.4735C16.7016 46.6256 16.1216 46.7043 15.5387 46.7077C14.6326 46.7036 13.7358 46.526 12.8974 46.1848ZM13.7614 37.9815C14.4341 37.8569 15.1172 37.7962 15.8014 37.8002C16.0451 37.8031 16.2878 37.7683 16.5207 37.697C16.6331 37.644 16.6907 37.4809 16.6907 37.2034V36.6582C16.691 36.3025 16.669 35.9472 16.6247 35.5942C16.564 35.1844 16.4541 34.7832 16.2974 34.3992C16.1232 33.9502 15.7658 33.7252 15.2254 33.7243C15.0979 33.7278 14.9728 33.76 14.8596 33.8185C14.7465 33.8769 14.6482 33.9601 14.5721 34.0618C13.5439 35.0272 12.9262 36.3461 12.8454 37.7486C12.8435 37.8417 12.8477 37.9349 12.858 38.0275C12.8665 38.0791 12.9058 38.1042 12.9761 38.1042L13.7614 37.9815Z" fill="#00AD4B"/>
<path d="M26.6254 49.5343C25.3535 49.5359 24.105 49.1946 23.0132 48.5471C21.8799 47.8908 21.095 47.0127 20.6585 45.913C20.2212 44.8023 19.9995 43.6195 20.0052 42.427C20.0366 40.4031 20.6244 38.4263 21.7052 36.7099C22.2374 35.8617 22.9412 35.1324 23.7719 34.568C24.6389 33.9924 25.6667 33.7026 26.7091 33.7399C27.7515 33.7772 28.7556 34.1397 29.5786 34.7758C30.1562 35.222 30.5655 35.8483 30.7405 36.5537C30.9236 37.2665 31.018 37.9989 31.0214 38.7346C30.9937 39.5361 30.9059 40.3346 30.7587 41.1232C30.6586 41.7615 30.3976 42.3644 30 42.876C29.6348 43.3166 29.1032 43.5369 28.4054 43.5369C27.8294 43.5035 27.3939 43.4811 27.0974 43.4728C26.801 43.4644 26.5748 43.4505 26.4174 43.4337L23.9855 43.3557C23.8098 43.3557 23.7227 43.4254 23.7227 43.5634L23.7494 43.7447C23.766 44.5044 24.002 45.2435 24.4294 45.874C24.7779 46.4448 25.4578 46.7301 26.4694 46.7301C26.6896 46.7411 26.9103 46.7195 27.1241 46.666C27.2863 46.595 27.4328 46.4932 27.5554 46.3662C27.696 46.2294 27.8543 46.1117 28.0261 46.0162C28.2273 45.9274 28.4469 45.8872 28.6667 45.8991C28.8452 45.8961 29.0223 45.931 29.1861 46.0015C29.3499 46.0719 29.4966 46.1763 29.6165 46.3076C29.8636 46.5619 29.9998 46.9026 29.9958 47.2558C29.9882 47.4785 29.9406 47.6981 29.8553 47.9042C29.7613 48.0984 29.6328 48.2741 29.476 48.423C28.7838 49.0872 27.8746 49.483 26.9134 49.5385L26.6254 49.5343ZM28.0303 40.5515C28.1269 40.0202 28.1795 39.4821 28.1877 38.9423L28.213 38.4487C28.2328 37.9879 28.1388 37.5293 27.939 37.1129C27.8546 36.9505 27.7243 36.8161 27.5641 36.7262C27.4039 36.6363 27.2207 36.5948 27.037 36.6067C26.8545 36.6086 26.675 36.653 26.513 36.7364C25.2017 37.5674 24.4172 38.7959 24.1597 40.4218C24.1597 40.5431 24.2636 40.6045 24.473 40.6045L25.5969 40.6296C26.3321 40.6315 27.0663 40.6837 27.7943 40.7857C27.9067 40.7857 27.9854 40.7077 28.0373 40.5515H28.0303Z" fill="#00AD4B"/>
<path d="M35.6801 48.9766C35.1885 48.5904 34.7728 48.1177 34.4535 47.5822C34.1113 47.0291 33.8382 46.4368 33.6401 45.8182C33.1078 44.225 32.6853 42.5977 32.3756 40.9475C31.8624 38.22 31.3411 34.4086 30.8119 29.5133C30.7459 29.1609 30.7374 28.8003 30.7866 28.4452C30.8547 28.0546 31.0567 27.6994 31.3585 27.4398C31.639 27.154 31.9982 26.9566 32.3911 26.8723C32.8845 26.8057 33.3843 26.8006 33.8789 26.8569C34.3014 26.9341 34.6409 27.2385 34.8975 27.7703C35.2158 29.4097 35.4107 31.0704 35.4806 32.7386C35.7571 36.1541 36.2205 39.5522 36.8687 42.9178L36.901 43.0866C36.9108 43.1423 36.9361 43.1674 36.9726 43.1605L37.2171 43.0573C38.4534 42.1704 39.2931 41.0916 39.7362 39.8208C40.1829 38.5071 40.31 37.107 40.1071 35.7352L40.0762 35.1021C40.0143 34.675 39.987 34.2437 39.9947 33.8123C39.9936 33.4259 40.0815 33.0443 40.2518 32.6968C40.4147 32.376 40.7318 32.1725 41.2029 32.086L41.4839 32.0609C42.1499 31.9772 42.6458 32.0237 42.9718 32.2003C43.2991 32.3816 43.5941 32.9227 43.8611 33.8193C43.9281 34.1792 43.9479 34.5461 43.9201 34.9111C43.8521 36.6835 43.543 38.4387 43.0013 40.129C42.7222 40.9354 42.3472 41.7059 41.8843 42.4242C41.4345 43.0985 40.9418 43.7436 40.4091 44.3555C40.6481 44.5093 40.9164 44.6127 41.1973 44.6595C41.4656 44.6989 41.7372 44.7115 42.008 44.6971C42.3366 44.6873 42.6654 44.7037 42.9914 44.7459C43.6976 44.983 44.1074 45.4013 44.2208 46.0009C44.2671 46.3956 44.2004 46.7953 44.0283 47.1541C43.8681 47.4441 43.5056 47.6417 42.9408 47.7467C41.1107 47.9503 39.4645 47.5877 38.0025 46.6591C37.9954 46.6214 37.9547 46.6103 37.8788 46.6242C37.908 46.8002 37.9649 46.9705 38.0474 47.129C38.1205 47.2684 38.209 47.4427 38.3101 47.6756C38.348 47.8644 38.3455 48.059 38.3029 48.2468C38.2603 48.4346 38.1786 48.6115 38.0629 48.766C37.9574 48.9231 37.8212 49.0577 37.6624 49.1616C37.5036 49.2656 37.3254 49.3368 37.1384 49.3712C36.881 49.4158 36.617 49.4035 36.3649 49.3353C36.1129 49.2671 35.879 49.1446 35.6801 48.9766Z" fill="#00AD4B"/>
</svg>
