<svg width="71" height="80" viewBox="0 0 71 80" fill="none" xmlns="http://www.w3.org/2000/svg">
<path d="M7.86764 42.4511C6.95275 41.864 6.23688 41.0175 5.81304 40.0214C4.77526 37.6339 3.95597 35.1586 3.36505 32.6255C2.80457 30.1936 2.30554 27.6108 1.86795 24.877C0.734999 17.8134 0.115319 11.4363 0.00891791 5.7456C-0.0107115 5.40901 0.00208093 5.07134 0.0471286 4.73716C0.0981321 4.38799 0.235621 4.05682 0.447264 3.77334C0.678634 3.3326 1.01464 2.95439 1.42627 2.67141C1.83789 2.38842 2.31276 2.20917 2.80983 2.14913C4.30844 2.01229 5.31475 2.20341 5.82877 2.7225C6.3428 3.2416 6.75341 4.22848 7.06063 5.68313C7.18489 6.45033 7.25997 7.22457 7.28542 8.0012L7.37309 8.94495C7.52295 11.5241 7.62036 13.5447 7.66532 15.0067C7.71028 16.4688 7.7972 17.8982 7.92608 19.2949C8.04897 20.696 8.34869 22.8764 8.82525 25.8363C9.10399 27.5632 9.42993 29.2803 9.80309 30.9879L9.84355 31.2333C9.86003 31.3314 9.94995 31.3671 10.1133 31.3404C10.2421 31.3205 10.3654 31.2745 10.4756 31.2055C10.5858 31.1364 10.6805 31.0456 10.754 30.9388C10.8619 25.315 11.271 20.8447 11.9813 17.5278C12.5373 14.9041 13.6343 13.4628 15.2723 13.204C16.3543 13.0315 17.3688 13.4881 18.3159 14.5739C18.9787 15.5425 19.5341 16.5793 19.9727 17.6662L23.3063 25.5508C23.4726 25.9984 23.7271 26.4087 24.0549 26.7578C24.3933 27.0613 24.8107 27.2646 25.2598 27.3445C25.7093 27.2709 26.042 26.8292 26.2309 26.0059C26.4177 25.2558 26.4551 24.4767 26.341 23.7124L26.0533 20.6536C25.8584 17.3471 25.5333 13.9611 25.0777 10.4955C24.8867 9.11266 24.5336 7.75665 24.0257 6.45508C23.6478 5.45898 23.3472 4.43565 23.1265 3.39406C22.8343 1.57202 23.7649 0.45649 25.9184 0.0474615C26.7726 -0.0864023 27.4672 0.063079 28.009 0.493674C28.5356 0.909367 28.9376 1.46029 29.1711 2.08666C29.8238 3.65645 30.2907 5.29608 30.5626 6.97269L30.8166 9.1859L31.9046 27.2865C31.9705 28.9464 31.9518 30.6569 31.8484 32.418C31.7875 34.0018 31.4788 35.5666 30.9335 37.0564C30.421 38.3712 29.542 39.1275 28.2967 39.3253C26.7232 39.5737 25.1496 38.6709 23.5761 36.6168C22.3892 35.1027 21.2652 33.5409 20.2042 31.9316C19.1242 30.2854 18.248 28.516 17.5944 26.6618L16.6368 24.1586L16.4569 24.288L16.3175 27.5141C16.2486 29.7972 16.0688 32.0788 15.7781 34.359C15.5527 36.4097 15.0059 38.4128 14.1573 40.2959C13.369 41.9736 12.1544 42.9404 10.5134 43.1962C9.68769 43.3182 8.80577 43.0698 7.86764 42.4511Z" fill="white"/>
<path d="M35.11 40.0836C34.7834 40.0056 34.4811 39.8493 34.2295 39.6283C33.9779 39.4074 33.7847 39.1286 33.6669 38.8164C33.3809 38.1643 33.204 37.4702 33.1431 36.7616C33.0307 35.0169 32.9753 33.1963 32.9768 31.2999C32.9783 29.4035 32.9498 27.4856 32.8914 25.546C32.8914 22.6947 33.5755 20.8534 34.9437 20.0219C35.6507 19.5854 36.4552 19.3287 37.286 19.2745C37.5311 19.2731 37.7739 19.3201 38.0005 19.4128C38.227 19.5055 38.4327 19.642 38.6055 19.8144C38.9843 20.1802 39.2521 20.6439 39.3788 21.1531C39.4651 21.5941 39.5073 22.0425 39.5047 22.4917L39.5474 23.3641C39.1563 27.4633 38.9315 30.6195 38.873 32.8327C38.8431 33.9675 38.7681 35.089 38.6483 36.1971C38.5593 37.1866 38.2678 38.1477 37.7918 39.0216C37.3422 39.798 36.6169 40.1855 35.6158 40.184L35.11 40.0836ZM34.901 15.9101C34.6963 15.7099 34.5351 15.4702 34.4272 15.2058C34.3194 14.9415 34.2672 14.658 34.2738 14.3729C34.2729 14.0836 34.3297 13.7969 34.4409 13.5295C34.5522 13.262 34.7156 13.0191 34.9218 12.8146C35.128 12.6101 35.373 12.4482 35.6426 12.3381C35.9121 12.228 36.201 12.1719 36.4925 12.1731C36.7793 12.1691 37.0641 12.2223 37.3298 12.3295C37.5956 12.4366 37.8371 12.5956 38.0399 12.7969C38.2428 12.9982 38.4029 13.2379 38.5109 13.5017C38.6188 13.7654 38.6724 14.048 38.6685 14.3327C38.6742 14.6216 38.6214 14.9087 38.5133 15.1769C38.4051 15.4452 38.2439 15.6892 38.0391 15.8945C37.8407 16.1027 37.6006 16.2674 37.3343 16.3781C37.0679 16.4887 36.7812 16.5429 36.4925 16.537C36.1981 16.5459 35.9051 16.4949 35.6313 16.3871C35.3576 16.2793 35.1091 16.1169 34.901 15.9101Z" fill="white"/>
<path d="M42.7487 39.4192C42.1474 38.7355 41.6787 37.9473 41.3662 37.0944C41.0259 36.2113 40.7942 35.2907 40.6761 34.3524C40.3424 31.9295 40.1749 29.4868 40.1748 27.0412C40.1748 22.9986 40.4536 17.4053 41.011 10.2614C41.0103 9.73884 41.0953 9.21965 41.2628 8.72421C41.4647 8.18323 41.8492 7.72834 42.3508 7.43689C42.83 7.10259 43.3973 6.91489 43.9828 6.89697C44.7068 6.9335 45.4234 7.05941 46.116 7.27179C46.7035 7.49341 47.1081 8.0192 47.3299 8.84915C47.3444 11.2811 47.1768 13.7107 46.8286 16.118C46.3041 21.0834 46.0527 26.0735 46.0756 31.0661V31.316C46.0756 31.3985 46.1026 31.4409 46.1588 31.4409L46.5342 31.3584C48.5438 30.4169 50.0364 29.0946 51.012 27.3915C52.0068 25.6286 52.5661 23.6567 52.644 21.6376L52.7699 20.7251C52.7942 20.0969 52.8694 19.4717 52.9947 18.8555C53.0981 18.2986 53.3288 17.7728 53.669 17.3183C53.9882 16.9033 54.4985 16.6958 55.1954 16.6958L55.6135 16.7382C56.5906 16.7947 57.2882 16.9948 57.7063 17.3383C58.1244 17.6819 58.4032 18.5335 58.5425 19.8929C58.5416 20.4262 58.4714 20.9571 58.3335 21.4725C57.7591 23.992 56.8441 26.4228 55.6135 28.6989C54.9995 29.7845 54.2561 30.7927 53.3993 31.7019C52.5698 32.5432 51.6876 33.3316 50.758 34.0624C51.0587 34.345 51.4144 34.5636 51.8033 34.705C52.1767 34.8333 52.5624 34.9238 52.9542 34.9749C53.4301 35.0477 53.8992 35.1589 54.3569 35.3073C55.3033 35.8339 55.7798 36.5411 55.7798 37.4268C55.7385 38.0033 55.5352 38.5567 55.1931 39.0243C54.8844 39.3991 54.3127 39.5865 53.478 39.5865C50.8014 39.3872 48.546 38.4316 46.7117 36.7196C46.7117 36.6638 46.6555 36.6371 46.5432 36.6371C46.5372 36.8968 46.5729 37.1559 46.6488 37.4045C46.7185 37.612 46.7949 37.8976 46.8736 38.2568C46.8767 38.537 46.8208 38.8148 46.7093 39.0722C46.5978 39.3297 46.4332 39.5611 46.2262 39.7516C46.0327 39.9483 45.8016 40.1046 45.5465 40.2115C45.2913 40.3184 45.0173 40.3736 44.7403 40.3741C44.3579 40.3708 43.981 40.2834 43.6366 40.1183C43.2923 39.9532 42.989 39.7145 42.7487 39.4192Z" fill="white"/>
<path d="M61.39 40.0836C61.0634 40.0056 60.7611 39.8493 60.5095 39.6283C60.2579 39.4074 60.0647 39.1286 59.9469 38.8164C59.6609 38.1643 59.484 37.4702 59.4231 36.7616C59.3122 35.0169 59.2568 33.1963 59.2568 31.2999C59.2568 29.4035 59.229 27.4856 59.1736 25.546C59.1736 22.6947 59.8569 20.8534 61.2237 20.0219C61.932 19.5847 62.7381 19.328 63.5705 19.2745C63.8155 19.2731 64.0584 19.3201 64.285 19.4128C64.5115 19.5055 64.7172 19.642 64.89 19.8144C65.2687 20.1802 65.5366 20.6439 65.6633 21.1531C65.7496 21.5941 65.7918 22.0425 65.7892 22.4917L65.8319 23.3641C65.4408 27.4633 65.216 30.6195 65.1575 32.8327C65.1291 33.9675 65.0541 35.089 64.9327 36.1971C64.8448 37.1868 64.5533 38.1481 64.0763 39.0216C63.6267 39.798 62.9014 40.1855 61.9003 40.184L61.39 40.0836ZM61.181 15.9101C60.9763 15.7099 60.8151 15.4702 60.7072 15.2058C60.5994 14.9415 60.5472 14.658 60.5538 14.3729C60.5529 14.0836 60.6097 13.7969 60.7209 13.5295C60.8321 13.262 60.9956 13.0191 61.2018 12.8146C61.408 12.6101 61.653 12.4482 61.9226 12.3381C62.1921 12.228 62.481 12.1719 62.7725 12.1731C63.0593 12.1691 63.3441 12.2223 63.6098 12.3295C63.8756 12.4366 64.1171 12.5956 64.3199 12.7969C64.5227 12.9982 64.6829 13.2379 64.7908 13.5017C64.8988 13.7654 64.9524 14.048 64.9485 14.3327C64.9547 14.6217 64.9021 14.9089 64.794 15.1772C64.6858 15.4455 64.5243 15.6895 64.3191 15.8945C64.1207 16.1027 63.8806 16.2674 63.6142 16.3781C63.3479 16.4887 63.0612 16.5429 62.7725 16.537C62.4781 16.5459 62.185 16.4949 61.9113 16.3871C61.6376 16.2793 61.389 16.1169 61.181 15.9101Z" fill="white"/>
<path d="M10.5023 79.8773L8.28365 79.7948C7.28108 79.739 6.51903 79.4266 6.00426 78.8599C5.46029 78.2365 5.10495 77.4731 4.97921 76.6579C4.80747 75.7194 4.72319 74.7671 4.72745 73.8133V65.7145C4.72745 62.1686 4.93651 58.3334 5.35463 54.2089L5.39734 52.1318C5.40376 50.8252 5.5014 49.5206 5.68956 48.2274C5.85891 47.2026 6.29875 46.4485 7.00909 45.9651C7.71943 45.4817 8.91157 45.2393 10.5855 45.2378C11.2824 45.2378 11.7319 45.4178 11.9343 45.7777C12.1298 46.1369 12.24 46.7058 12.2692 47.48C12.2675 47.9104 12.2397 48.3403 12.186 48.7673L12.1006 49.3073C11.8219 51.6618 11.5012 54.0014 11.1385 56.3262C10.7204 59.0972 10.3457 61.8488 10.0145 64.5811C9.67918 67.3239 9.51104 70.0843 9.51102 72.8472L9.55373 74.2996C9.55373 75.021 9.90215 75.381 10.599 75.3795C11.687 75.3795 12.7615 75.4077 13.8225 75.4643C14.8835 75.5208 15.9438 75.5483 17.0033 75.5468C17.6714 75.5155 18.325 75.7472 18.8219 76.1916C19.0414 76.3892 19.2169 76.6303 19.337 76.8992C19.457 77.1682 19.5191 77.4591 19.5191 77.7533C19.5191 78.0475 19.457 78.3384 19.337 78.6074C19.2169 78.8764 19.0414 79.1174 18.8219 79.3151C18.3241 79.7578 17.671 79.9886 17.0033 79.9576L15.3286 80C13.7296 80.0015 12.1208 79.9606 10.5023 79.8773ZM20.6359 73.8958C19.1231 73.3104 17.7947 72.3355 16.7875 71.0713C15.8351 69.8479 15.1506 68.4405 14.7779 66.9394C14.3914 65.4396 14.1943 63.898 14.1912 62.3501C14.2041 60.9254 14.4013 59.5082 14.7779 58.1333C15.1671 56.6553 15.773 55.2421 16.5762 53.9389C17.3502 52.6608 18.392 51.5629 19.6311 50.7195C20.9198 49.8716 22.4397 49.4371 23.9853 49.4746C24.9733 49.4709 25.9529 49.6541 26.8717 50.0145C28.5456 50.7879 29.6756 51.9778 30.2615 53.5842C30.8664 55.294 31.1912 57.089 31.2236 58.9008C31.2429 60.1756 31.0234 61.4427 30.5762 62.6379C30.1416 63.7474 29.2837 64.4398 28.0024 64.715C26.4108 64.9366 24.8208 65.1025 23.2323 65.2125L20.845 65.42C20.6494 65.42 20.5528 65.4914 20.5528 65.6297C20.7173 66.8009 21.1705 67.9136 21.8723 68.8692C22.5527 69.7825 23.508 70.2391 24.7384 70.2391C25.9687 70.2391 26.757 70.0242 27.1032 69.5943C27.3798 69.2351 27.7034 68.914 28.0653 68.6394C28.4343 68.4115 28.8656 68.3031 29.2994 68.3293C29.5813 68.3265 29.8604 68.3849 30.1171 68.5005C30.3738 68.6162 30.6019 68.7862 30.7853 68.9986C31.1899 69.4419 31.4072 70.0227 31.3922 70.6206C31.277 71.5731 30.8159 72.4512 30.0952 73.0904C29.3792 73.6946 28.5333 74.1281 27.6225 74.3576C26.7226 74.601 25.7947 74.727 24.862 74.7325C23.4122 74.7258 21.9773 74.4418 20.6359 73.8958ZM22.0184 60.7705C23.0947 60.5712 24.1876 60.4741 25.2824 60.4804C25.6723 60.4851 26.0606 60.4294 26.4333 60.3153C26.6131 60.2305 26.7053 59.9695 26.7053 59.5255V58.6532C26.7057 58.0841 26.6705 57.5156 26.5997 56.9509C26.5025 56.2951 26.3266 55.6532 26.0759 55.0389C25.7972 54.3205 25.2254 53.9605 24.3607 53.959C24.1567 53.9647 23.9566 54.0162 23.7755 54.1097C23.5945 54.2032 23.4372 54.3363 23.3155 54.4989C21.6703 56.0436 20.682 58.1538 20.5528 60.3979C20.5498 60.5469 20.5565 60.6959 20.573 60.8441C20.5865 60.9266 20.6494 60.9668 20.7618 60.9668L22.0184 60.7705Z" fill="white"/>
<path d="M42.6007 79.2547C40.5656 79.2571 38.5681 78.7112 36.8213 77.6751C35.0079 76.625 33.7521 75.2202 33.0537 73.4606C32.354 71.6835 31.9993 69.791 32.0085 67.8829C32.0586 64.6448 32.9991 61.4818 34.7284 58.7356C35.58 57.3786 36.706 56.2117 38.0351 55.3087C39.4223 54.3876 41.0667 53.924 42.7346 53.9836C44.4025 54.0433 46.009 54.6233 47.3258 55.6411C48.2499 56.355 48.9048 57.3571 49.1848 58.4857C49.4779 59.6262 49.6289 60.7981 49.6344 61.9751C49.59 63.2576 49.4495 64.5351 49.214 65.7969C49.0538 66.8182 48.6363 67.7829 48.0001 68.6013C47.4157 69.3064 46.5652 69.6589 45.4488 69.6589C44.5271 69.6053 43.8303 69.5696 43.356 69.5562C42.8816 69.5428 42.5197 69.5205 42.268 69.4938L38.3768 69.3688C38.0958 69.3688 37.9565 69.4804 37.9565 69.7013L37.9992 69.9913C38.0257 71.2069 38.4033 72.3893 39.0872 73.3981C39.6446 74.3114 40.7326 74.768 42.3511 74.768C42.7035 74.7855 43.0565 74.7509 43.3987 74.6654C43.6581 74.5518 43.8926 74.3889 44.0888 74.1857C44.3137 73.9668 44.567 73.7785 44.8418 73.6257C45.1637 73.4836 45.5151 73.4193 45.8669 73.4383C46.1525 73.4335 46.4358 73.4894 46.6979 73.6021C46.9599 73.7149 47.1947 73.8819 47.3865 74.092C47.7818 74.4989 47.9998 75.0439 47.9934 75.6091C47.9812 75.9654 47.9051 76.3167 47.7686 76.6466C47.6182 76.9572 47.4126 77.2383 47.1617 77.4765C46.0542 78.5393 44.5994 79.1726 43.0615 79.2614L42.6007 79.2547ZM44.8486 64.8822C45.0031 64.0322 45.0873 63.1711 45.1003 62.3075L45.1408 61.5177C45.1726 60.7804 45.0221 60.0466 44.7025 59.3804C44.5674 59.1206 44.359 58.9056 44.1026 58.7617C43.8463 58.6179 43.5532 58.5514 43.2593 58.5705C42.9673 58.5735 42.6801 58.6446 42.4208 58.778C40.3228 60.1077 39.0677 62.0732 38.6556 64.6747C38.6556 64.8688 38.8219 64.9669 39.1568 64.9669L40.9552 65.0071C42.1315 65.0101 43.3062 65.0936 44.4709 65.257C44.6508 65.257 44.7766 65.132 44.8598 64.8822H44.8486Z" fill="white"/>
<path d="M57.0881 78.3625C56.3017 77.7446 55.6365 76.9883 55.1257 76.1315C54.5782 75.2466 54.1411 74.2988 53.8242 73.3092C52.9725 70.76 52.2966 68.1563 51.8011 65.5161C50.9798 61.1521 50.1458 55.0538 49.2991 47.2213C49.1935 46.6575 49.1799 46.0805 49.2587 45.5123C49.3675 44.8874 49.6908 44.3191 50.1736 43.9037C50.6224 43.4465 51.1971 43.1307 51.8258 42.9957C52.6152 42.8892 53.4149 42.881 54.2063 42.9711C54.8822 43.0946 55.4254 43.5817 55.8361 44.4325C56.3454 47.0556 56.6572 49.7127 56.7689 52.3818C57.2114 57.8466 57.9528 63.2836 58.9899 68.6686L59.0416 68.9385C59.0573 69.0278 59.0978 69.0679 59.1562 69.0568L59.5474 68.8917C61.5255 67.4727 62.869 65.7466 63.5779 63.7134C64.2927 61.6114 64.4961 59.3713 64.1713 57.1763L64.1219 56.1634C64.0229 55.4801 63.9793 54.79 63.9915 54.0997C63.9898 53.4814 64.1305 52.8709 64.4029 52.3148C64.6636 51.8017 65.1709 51.476 65.9247 51.3376L66.3743 51.2975C67.4398 51.1636 68.2333 51.238 68.7548 51.5206C69.2786 51.8106 69.7507 52.6763 70.1778 54.1109C70.2849 54.6867 70.3166 55.2739 70.2722 55.8578C70.1633 58.6937 69.6688 61.502 68.802 64.2064C68.3555 65.4967 67.7556 66.7295 67.0149 67.8788C66.2953 68.9576 65.5069 69.9897 64.6546 70.9688C65.037 71.2149 65.4662 71.3804 65.9157 71.4551C66.3449 71.5183 66.7795 71.5385 67.2128 71.5154C67.7385 71.4997 68.2647 71.5259 68.7863 71.5935C69.9163 71.9728 70.5719 72.6421 70.7532 73.6014C70.8273 74.233 70.7206 74.8724 70.4453 75.4465C70.189 75.9106 69.609 76.2267 68.7054 76.3947C65.7771 76.7205 63.1433 76.1404 60.804 74.6545C60.7927 74.5943 60.7275 74.5764 60.6061 74.5987C60.6528 74.8803 60.7438 75.1529 60.8759 75.4064C60.9928 75.6295 61.1344 75.9084 61.2962 76.2809C61.3568 76.583 61.3529 76.8944 61.2847 77.1949C61.2166 77.4954 61.0857 77.7784 60.9006 78.0256C60.7319 78.277 60.514 78.4923 60.2599 78.6586C60.0059 78.8249 59.7208 78.9389 59.4215 78.9939C59.0097 79.0652 58.5872 79.0456 58.1839 78.9365C57.7806 78.8273 57.4065 78.6314 57.0881 78.3625Z" fill="white"/>
</svg>
